<?xml version="1.0" encoding="utf-8"?>
<!-- Generator: Adobe Illustrator 23.0.3, SVG Export Plug-In . SVG Version: 6.00 Build 0)  -->
<svg version="1.1" xmlns="http://www.w3.org/2000/svg" xmlns:xlink="http://www.w3.org/1999/xlink" x="0px" y="0px"
	 viewBox="0 0 66.67 100" style="enable-background:new 0 0 66.67 100;" xml:space="preserve">
<style type="text/css">
	.st0{display:none;}
	.st1{display:inline;opacity:0.14;}
	.st2{fill:#FFFFFF;stroke:#000000;stroke-miterlimit:10;}
	.st3{opacity:0.05;fill:#71B739;}
</style>
<g id="Laag_1" class="st0">
	<g class="st1">
		<rect class="st2" width="16.67" height="25"/>
		<rect x="16.67" class="st2" width="16.67" height="25"/>
		<rect x="33.33" class="st2" width="16.67" height="25"/>
		<rect y="25" class="st2" width="16.67" height="25"/>
		<rect x="16.67" y="25" class="st2" width="16.67" height="25"/>
		<rect x="33.33" y="25" class="st2" width="16.67" height="25"/>
		<rect y="50" class="st2" width="16.67" height="25"/>
		<rect x="16.67" y="50" class="st2" width="16.67" height="25"/>
		<rect x="33.33" y="50" class="st2" width="16.67" height="25"/>
		<rect y="75" class="st2" width="16.67" height="25"/>
		<rect x="16.67" y="75" class="st2" width="16.67" height="25"/>
		<rect x="33.33" y="75" class="st2" width="16.67" height="25"/>
		<rect x="50" class="st2" width="16.67" height="25"/>
		<rect x="50" y="25" class="st2" width="16.67" height="25"/>
		<rect x="50" y="50" class="st2" width="16.67" height="25"/>
		<rect x="50" y="75" class="st2" width="16.67" height="25"/>
	</g>
</g>
<g id="Laag_2">
	<path class="st3" d="M8.33,37.5L8.33,37.5C3.73,37.5,0,33.77,0,29.17L0-20.9c0-4.6,3.73-8.33,8.33-8.33h0
		c4.6,0,8.33,3.73,8.33,8.33v50.07C16.67,33.77,12.94,37.5,8.33,37.5z"/>
	<path class="st3" d="M8.33,129.24L8.33,129.24c-4.6,0-8.33-3.73-8.33-8.33l0-50.07c0-4.6,3.73-8.33,8.33-8.33h0
		c4.6,0,8.33,3.73,8.33,8.33v50.07C16.67,125.5,12.94,129.24,8.33,129.24z"/>
	<path class="st3" d="M41.67,83.37L41.67,83.37c-4.6,0-8.33-3.73-8.33-8.33V24.97c0-4.6,3.73-8.33,8.33-8.33h0
		c4.6,0,8.33,3.73,8.33,8.33v50.07C50,79.64,46.27,83.37,41.67,83.37z"/>
</g>
</svg>
